<svg width="30" height="25" viewBox="0 0 30 25" fill="none" xmlns="http://www.w3.org/2000/svg">
<path d="M29 9.00002H25C25 8.7348 24.8946 8.48044 24.7071 8.29291C24.5196 8.10537 24.2652 8.00002 24 8.00002H16C15.7348 8.00002 15.4804 8.10537 15.2929 8.29291C15.1054 8.48044 15 8.7348 15 9.00002H7V3.50002C7 3.10219 7.15804 2.72066 7.43934 2.43935C7.72064 2.15805 8.10218 2.00002 8.5 2.00002C8.85156 1.99858 9.19324 2.11632 9.46928 2.33402C9.74533 2.55173 9.93946 2.85655 10.02 3.19877C10.0749 3.45647 10.2294 3.68209 10.4497 3.82657C10.6701 3.97104 10.9385 4.02271 11.1968 3.97034C11.455 3.91797 11.6822 3.76579 11.8288 3.54687C11.9755 3.32796 12.0298 3.06001 11.98 2.80127C11.8102 2.00553 11.3715 1.29257 10.7377 0.782374C10.1039 0.272179 9.31364 -0.00410661 8.5 1.4936e-05C7.57174 1.4936e-05 6.6815 0.368764 6.02513 1.02514C5.36875 1.68152 5 2.57176 5 3.50002V9.00002H1C0.734784 9.00002 0.48043 9.10537 0.292893 9.29291C0.105357 9.48044 0 9.7348 0 10V15C0.00198528 16.8559 0.740121 18.6352 2.05245 19.9476C3.36477 21.2599 5.14409 21.998 7 22V24C7 24.2652 7.10536 24.5196 7.29289 24.7071C7.48043 24.8947 7.73478 25 8 25C8.26522 25 8.51957 24.8947 8.70711 24.7071C8.89464 24.5196 9 24.2652 9 24V22H21V24C21 24.2652 21.1054 24.5196 21.2929 24.7071C21.4804 24.8947 21.7348 25 22 25C22.2652 25 22.5196 24.8947 22.7071 24.7071C22.8946 24.5196 23 24.2652 23 24V22C24.8559 21.998 26.6352 21.2599 27.9476 19.9476C29.2599 18.6352 29.998 16.8559 30 15V10C30 9.7348 29.8946 9.48044 29.7071 9.29291C29.5196 9.10537 29.2652 9.00002 29 9.00002ZM23 10V14H17V10H23ZM28 15C28 15.6566 27.8707 16.3068 27.6194 16.9134C27.3681 17.5201 26.9998 18.0713 26.5355 18.5355C26.0712 18.9998 25.52 19.3681 24.9134 19.6194C24.3068 19.8707 23.6566 20 23 20H7C5.67392 20 4.40215 19.4732 3.46447 18.5355C2.52678 17.5979 2 16.3261 2 15V11H15V15C15 15.2652 15.1054 15.5196 15.2929 15.7071C15.4804 15.8947 15.7348 16 16 16H24C24.2652 16 24.5196 15.8947 24.7071 15.7071C24.8946 15.5196 25 15.2652 25 15V11H28V15Z" fill="#03045E"/>
</svg>
