<svg width="15" height="10" viewBox="0 0 15 10" fill="none" xmlns="http://www.w3.org/2000/svg">
<path d="M13.7712 0H1.05932C0.778372 0 0.50893 0.105357 0.310268 0.292893C0.111607 0.48043 0 0.734784 0 1V9C0 9.26522 0.111607 9.51957 0.310268 9.70711C0.50893 9.89464 0.778372 10 1.05932 10H13.7712C14.0521 10 14.3216 9.89464 14.5202 9.70711C14.7189 9.51957 14.8305 9.26522 14.8305 9V1C14.8305 0.734784 14.7189 0.48043 14.5202 0.292893C14.3216 0.105357 14.0521 0 13.7712 0ZM13.7712 1V2.5H1.05932V1H13.7712ZM13.7712 9H1.05932V3.5H13.7712V9ZM12.7119 7.5C12.7119 7.63261 12.6561 7.75979 12.5567 7.85355C12.4574 7.94732 12.3227 8 12.1822 8H10.0636C9.92308 8 9.78836 7.94732 9.68903 7.85355C9.5897 7.75979 9.5339 7.63261 9.5339 7.5C9.5339 7.36739 9.5897 7.24021 9.68903 7.14645C9.78836 7.05268 9.92308 7 10.0636 7H12.1822C12.3227 7 12.4574 7.05268 12.5567 7.14645C12.6561 7.24021 12.7119 7.36739 12.7119 7.5ZM8.47458 7.5C8.47458 7.63261 8.41877 7.75979 8.31944 7.85355C8.22011 7.94732 8.08539 8 7.94491 8H6.88559C6.74512 8 6.6104 7.94732 6.51107 7.85355C6.41174 7.75979 6.35593 7.63261 6.35593 7.5C6.35593 7.36739 6.41174 7.24021 6.51107 7.14645C6.6104 7.05268 6.74512 7 6.88559 7H7.94491C8.08539 7 8.22011 7.05268 8.31944 7.14645C8.41877 7.24021 8.47458 7.36739 8.47458 7.5Z" fill="#FDFDFD"/>
</svg>
