<svg width="25" height="27" viewBox="0 0 25 27" fill="none" xmlns="http://www.w3.org/2000/svg">
<path d="M23.5 4.32715H18.5V3.32715C18.5 2.5315 18.1839 1.76844 17.6213 1.20583C17.0587 0.643219 16.2956 0.327148 15.5 0.327148H9.5C8.70435 0.327148 7.94129 0.643219 7.37868 1.20583C6.81607 1.76844 6.5 2.5315 6.5 3.32715V4.32715H1.5C1.23478 4.32715 0.98043 4.43251 0.792893 4.62004C0.605357 4.80758 0.5 5.06193 0.5 5.32715C0.5 5.59236 0.605357 5.84672 0.792893 6.03426C0.98043 6.22179 1.23478 6.32715 1.5 6.32715H2.5V24.3271C2.5 24.8576 2.71071 25.3663 3.08579 25.7414C3.46086 26.1164 3.96957 26.3271 4.5 26.3271H20.5C21.0304 26.3271 21.5391 26.1164 21.9142 25.7414C22.2893 25.3663 22.5 24.8576 22.5 24.3271V6.32715H23.5C23.7652 6.32715 24.0196 6.22179 24.2071 6.03426C24.3946 5.84672 24.5 5.59236 24.5 5.32715C24.5 5.06193 24.3946 4.80758 24.2071 4.62004C24.0196 4.43251 23.7652 4.32715 23.5 4.32715ZM8.5 3.32715C8.5 3.06193 8.60536 2.80758 8.79289 2.62004C8.98043 2.43251 9.23478 2.32715 9.5 2.32715H15.5C15.7652 2.32715 16.0196 2.43251 16.2071 2.62004C16.3946 2.80758 16.5 3.06193 16.5 3.32715V4.32715H8.5V3.32715ZM20.5 24.3271H4.5V6.32715H20.5V24.3271ZM10.5 11.3271V19.3271C10.5 19.5924 10.3946 19.8467 10.2071 20.0343C10.0196 20.2218 9.76522 20.3271 9.5 20.3271C9.23478 20.3271 8.98043 20.2218 8.79289 20.0343C8.60536 19.8467 8.5 19.5924 8.5 19.3271V11.3271C8.5 11.0619 8.60536 10.8076 8.79289 10.62C8.98043 10.4325 9.23478 10.3271 9.5 10.3271C9.76522 10.3271 10.0196 10.4325 10.2071 10.62C10.3946 10.8076 10.5 11.0619 10.5 11.3271ZM16.5 11.3271V19.3271C16.5 19.5924 16.3946 19.8467 16.2071 20.0343C16.0196 20.2218 15.7652 20.3271 15.5 20.3271C15.2348 20.3271 14.9804 20.2218 14.7929 20.0343C14.6054 19.8467 14.5 19.5924 14.5 19.3271V11.3271C14.5 11.0619 14.6054 10.8076 14.7929 10.62C14.9804 10.4325 15.2348 10.3271 15.5 10.3271C15.7652 10.3271 16.0196 10.4325 16.2071 10.62C16.3946 10.8076 16.5 11.0619 16.5 11.3271Z" fill="#00CC7C"/>
</svg>
