<svg width="26" height="26" viewBox="0 0 26 26" fill="none" xmlns="http://www.w3.org/2000/svg">
<path d="M24.9138 6.49837L19.3288 0.91212C19.143 0.726354 18.9225 0.578994 18.6799 0.478456C18.4372 0.377919 18.1771 0.326172 17.9144 0.326172C17.6517 0.326172 17.3916 0.377919 17.1489 0.478456C16.9062 0.578994 16.6857 0.726354 16.5 0.91212L1.08626 16.3271C0.899734 16.5122 0.751852 16.7324 0.651209 16.9751C0.550566 17.2178 0.499171 17.4781 0.50001 17.7409V23.3271C0.50001 23.8576 0.710724 24.3663 1.0858 24.7413C1.46087 25.1164 1.96958 25.3271 2.50001 25.3271H8.08626C8.349 25.328 8.60929 25.2766 8.85199 25.1759C9.09469 25.0753 9.31497 24.9274 9.50001 24.7409L24.9138 9.32712C25.0995 9.1414 25.2469 8.9209 25.3474 8.67822C25.448 8.43554 25.4997 8.17543 25.4997 7.91274C25.4997 7.65006 25.448 7.38995 25.3474 7.14727C25.2469 6.90459 25.0995 6.68409 24.9138 6.49837ZM2.91376 17.3271L13.5 6.74087L15.5863 8.82712L5.00001 19.4121L2.91376 17.3271ZM2.50001 19.7409L6.08626 23.3271H2.50001V19.7409ZM8.50001 22.9134L6.41376 20.8271L17 10.2409L19.0863 12.3271L8.50001 22.9134ZM20.5 10.9134L14.9138 5.32712L17.9138 2.32712L23.5 7.91212L20.5 10.9134Z" fill="#03045E"/>
</svg>
