<svg width="19" height="15" viewBox="0 0 19 15" fill="none" xmlns="http://www.w3.org/2000/svg">
<path d="M15.4062 6.06241C15.4062 6.23646 15.3371 6.40338 15.214 6.52645C15.091 6.64952 14.924 6.71866 14.75 6.71866H11.4688C11.2947 6.71866 11.1278 6.64952 11.0047 6.52645C10.8816 6.40338 10.8125 6.23646 10.8125 6.06241C10.8125 5.88836 10.8816 5.72144 11.0047 5.59837C11.1278 5.4753 11.2947 5.40616 11.4688 5.40616H14.75C14.924 5.40616 15.091 5.4753 15.214 5.59837C15.3371 5.72144 15.4062 5.88836 15.4062 6.06241ZM14.75 8.03116H11.4688C11.2947 8.03116 11.1278 8.1003 11.0047 8.22337C10.8816 8.34644 10.8125 8.51336 10.8125 8.68741C10.8125 8.86146 10.8816 9.02838 11.0047 9.15145C11.1278 9.27452 11.2947 9.34366 11.4688 9.34366H14.75C14.924 9.34366 15.091 9.27452 15.214 9.15145C15.3371 9.02838 15.4062 8.86146 15.4062 8.68741C15.4062 8.51336 15.3371 8.34644 15.214 8.22337C15.091 8.1003 14.924 8.03116 14.75 8.03116ZM18.0312 1.46866V13.2812C18.0312 13.6293 17.893 13.9631 17.6468 14.2092C17.4007 14.4554 17.0668 14.5937 16.7188 14.5937H2.28125C1.93315 14.5937 1.59931 14.4554 1.35317 14.2092C1.10703 13.9631 0.96875 13.6293 0.96875 13.2812V1.46866C0.96875 1.12056 1.10703 0.786722 1.35317 0.540581C1.59931 0.294439 1.93315 0.156158 2.28125 0.156158H16.7188C17.0668 0.156158 17.4007 0.294439 17.6468 0.540581C17.893 0.786722 18.0312 1.12056 18.0312 1.46866ZM16.7188 13.2812V1.46866H2.28125V13.2812H16.7188ZM10.1349 10.4921C10.1784 10.6607 10.1532 10.8397 10.0647 10.9897C9.97627 11.1397 9.83185 11.2484 9.66324 11.2919C9.49463 11.3354 9.31564 11.3102 9.16565 11.2217C9.01566 11.1332 8.90695 10.9888 8.86344 10.8202C8.6477 9.97858 7.79211 9.34366 6.87418 9.34366C5.95625 9.34366 5.10148 9.97858 4.88492 10.8202C4.84141 10.9888 4.7327 11.1332 4.58271 11.2217C4.43271 11.3102 4.25373 11.3354 4.08512 11.2919C3.91651 11.2484 3.77209 11.1397 3.68363 10.9897C3.59518 10.8397 3.56993 10.6607 3.61344 10.4921C3.82639 9.69947 4.32978 9.01599 5.02355 8.57749C4.65488 8.211 4.40332 7.7433 4.30077 7.23367C4.19821 6.72405 4.24928 6.19545 4.4475 5.71488C4.64572 5.23432 4.98217 4.82342 5.41419 4.53429C5.8462 4.24517 6.35434 4.09082 6.87418 4.09082C7.39402 4.09082 7.90216 4.24517 8.33417 4.53429C8.76619 4.82342 9.10264 5.23432 9.30085 5.71488C9.49907 6.19545 9.55015 6.72405 9.44759 7.23367C9.34504 7.7433 9.09348 8.211 8.7248 8.57749C9.41934 9.01535 9.92318 9.69905 10.1357 10.4921H10.1349ZM6.875 8.03116C7.13459 8.03116 7.38835 7.95418 7.60419 7.80996C7.82003 7.66574 7.98825 7.46076 8.08759 7.22093C8.18693 6.9811 8.21292 6.7172 8.16228 6.4626C8.11164 6.208 7.98663 5.97414 7.80308 5.79058C7.61952 5.60702 7.38566 5.48202 7.13106 5.43138C6.87646 5.38073 6.61256 5.40673 6.37273 5.50607C6.1329 5.60541 5.92792 5.77363 5.7837 5.98947C5.63948 6.20531 5.5625 6.45907 5.5625 6.71866C5.5625 7.06676 5.70078 7.40059 5.94692 7.64674C6.19306 7.89288 6.5269 8.03116 6.875 8.03116Z" fill="#FDFDFD"/>
</svg>
