<svg width="20" height="20" viewBox="0 0 20 20" fill="none" xmlns="http://www.w3.org/2000/svg">
<path d="M9.75 5.49982C8.85998 5.49982 7.98995 5.76374 7.24993 6.2582C6.50991 6.75267 5.93314 7.45547 5.59254 8.27774C5.25195 9.10001 5.16283 10.0048 5.33647 10.8777C5.5101 11.7506 5.93868 12.5525 6.56802 13.1818C7.19736 13.8111 7.99918 14.2397 8.87209 14.4134C9.74501 14.587 10.6498 14.4979 11.4721 14.1573C12.2943 13.8167 12.9971 13.2399 13.4916 12.4999C13.9861 11.7599 14.25 10.8898 14.25 9.99982C14.2488 8.80672 13.7743 7.66285 12.9306 6.81921C12.087 5.97556 10.9431 5.50106 9.75 5.49982ZM9.75 12.9998C9.15666 12.9998 8.57664 12.8239 8.08329 12.4942C7.58994 12.1646 7.20542 11.696 6.97836 11.1479C6.7513 10.5997 6.69189 9.99649 6.80764 9.41455C6.9234 8.8326 7.20912 8.29805 7.62868 7.8785C8.04824 7.45894 8.58279 7.17322 9.16473 7.05746C9.74667 6.94171 10.3499 7.00112 10.8981 7.22818C11.4462 7.45524 11.9148 7.83976 12.2444 8.33311C12.5741 8.82645 12.75 9.40647 12.75 9.99982C12.75 10.7955 12.4339 11.5585 11.8713 12.1211C11.3087 12.6837 10.5456 12.9998 9.75 12.9998ZM14.25 0.249817H5.25C3.85807 0.251306 2.52358 0.804908 1.53933 1.78915C0.555091 2.77339 0.00148896 4.10789 0 5.49982V14.4998C0.00148896 15.8917 0.555091 17.2262 1.53933 18.2105C2.52358 19.1947 3.85807 19.7483 5.25 19.7498H14.25C15.6419 19.7483 16.9764 19.1947 17.9607 18.2105C18.9449 17.2262 19.4985 15.8917 19.5 14.4998V5.49982C19.4985 4.10789 18.9449 2.77339 17.9607 1.78915C16.9764 0.804908 15.6419 0.251306 14.25 0.249817ZM18 14.4998C18 15.4944 17.6049 16.4482 16.9016 17.1515C16.1984 17.8547 15.2446 18.2498 14.25 18.2498H5.25C4.25544 18.2498 3.30161 17.8547 2.59835 17.1515C1.89509 16.4482 1.5 15.4944 1.5 14.4998V5.49982C1.5 4.50526 1.89509 3.55143 2.59835 2.84817C3.30161 2.14491 4.25544 1.74982 5.25 1.74982H14.25C15.2446 1.74982 16.1984 2.14491 16.9016 2.84817C17.6049 3.55143 18 4.50526 18 5.49982V14.4998ZM15.75 5.12482C15.75 5.34732 15.684 5.56483 15.5604 5.74983C15.4368 5.93484 15.2611 6.07903 15.0555 6.16418C14.85 6.24933 14.6238 6.27161 14.4055 6.2282C14.1873 6.18479 13.9868 6.07765 13.8295 5.92031C13.6722 5.76298 13.565 5.56252 13.5216 5.34429C13.4782 5.12607 13.5005 4.89986 13.5856 4.6943C13.6708 4.48873 13.815 4.31303 14 4.18941C14.185 4.0658 14.4025 3.99982 14.625 3.99982C14.9234 3.99982 15.2095 4.11834 15.4205 4.32932C15.6315 4.5403 15.75 4.82645 15.75 5.12482Z" fill="#03045E"/>
</svg>
