<svg width="20" height="21" viewBox="0 0 20 21" fill="none" xmlns="http://www.w3.org/2000/svg">
<path d="M9.75 0.749817C7.16414 0.749817 4.68419 1.77705 2.85571 3.60553C1.02723 5.43401 0 7.91396 0 10.4998C0 13.0857 1.02723 15.5656 2.85571 17.3941C4.68419 19.2226 7.16414 20.2498 9.75 20.2498C11.7666 20.2498 13.8844 19.6423 15.4153 18.6251C15.4974 18.5706 15.5679 18.5004 15.6228 18.4186C15.6778 18.3368 15.716 18.245 15.7355 18.1484C15.755 18.0519 15.7552 17.9524 15.7362 17.8557C15.7172 17.759 15.6794 17.667 15.6248 17.585C15.5703 17.5029 15.5001 17.4324 15.4183 17.3775C15.3366 17.3225 15.2447 17.2842 15.1482 17.2648C15.0516 17.2453 14.9521 17.2451 14.8554 17.2641C14.7587 17.2831 14.6667 17.3209 14.5847 17.3754C13.3125 18.2229 11.4572 18.7498 9.75 18.7498C8.1183 18.7498 6.52325 18.266 5.16655 17.3594C3.80984 16.4529 2.75242 15.1644 2.12799 13.657C1.50357 12.1495 1.34019 10.4907 1.65852 8.89032C1.97685 7.28998 2.76259 5.81997 3.91637 4.66619C5.07015 3.5124 6.54016 2.72667 8.1405 2.40834C9.74085 2.09001 11.3996 2.25339 12.9071 2.87781C14.4146 3.50223 15.7031 4.55966 16.6096 5.91636C17.5161 7.27307 18 8.86812 18 10.4998C18 12.9795 16.98 13.4998 16.125 13.4998C15.27 13.4998 14.25 12.9795 14.25 10.4998V6.74982C14.25 6.5509 14.171 6.36014 14.0303 6.21949C13.8897 6.07883 13.6989 5.99982 13.5 5.99982C13.3011 5.99982 13.1103 6.07883 12.9697 6.21949C12.829 6.36014 12.75 6.5509 12.75 6.74982V7.14919C12.077 6.54575 11.2378 6.159 10.3418 6.03932C9.44576 5.91965 8.53449 6.07259 7.72666 6.47824C6.91883 6.88388 6.25189 7.52342 5.81273 8.31353C5.37357 9.10364 5.18255 10.0077 5.26455 10.9079C5.34656 11.8082 5.69778 12.6628 6.27247 13.3606C6.84716 14.0583 7.61867 14.5669 8.4865 14.8199C9.35433 15.0729 10.2782 15.0586 11.1379 14.779C11.9975 14.4994 12.753 13.9674 13.3059 13.2523C13.8684 14.3773 14.8387 14.9998 16.125 14.9998C18.2381 14.9998 19.5 13.3179 19.5 10.4998C19.4973 7.91479 18.4692 5.43643 16.6413 3.60854C14.8134 1.78065 12.335 0.752547 9.75 0.749817ZM9.75 13.4998C9.15666 13.4998 8.57664 13.3239 8.08329 12.9942C7.58994 12.6646 7.20542 12.196 6.97836 11.6479C6.7513 11.0997 6.69189 10.4965 6.80764 9.91455C6.9234 9.3326 7.20912 8.79805 7.62868 8.3785C8.04824 7.95894 8.58279 7.67322 9.16473 7.55746C9.74667 7.44171 10.3499 7.50112 10.8981 7.72818C11.4462 7.95524 11.9148 8.33976 12.2444 8.83311C12.5741 9.32645 12.75 9.90647 12.75 10.4998C12.75 11.2955 12.4339 12.0585 11.8713 12.6211C11.3087 13.1837 10.5456 13.4998 9.75 13.4998Z" fill="#03045E"/>
</svg>
