<svg width="19" height="19" viewBox="0 0 19 19" fill="none" xmlns="http://www.w3.org/2000/svg">
<path d="M17.8472 12.7305L13.4306 10.7515L13.4184 10.7458C13.1892 10.6478 12.939 10.6084 12.6907 10.6313C12.4424 10.6543 12.2037 10.7387 11.9963 10.8771C11.9718 10.8932 11.9484 10.9108 11.9259 10.9296L9.64407 12.8749C8.19845 12.1727 6.70595 10.6915 6.00376 9.26459L7.95188 6.94803C7.97063 6.92459 7.98845 6.90115 8.00532 6.87584C8.14072 6.66894 8.22287 6.43177 8.24446 6.18544C8.26605 5.93911 8.22641 5.69127 8.12907 5.46396V5.45271L6.14438 1.02865C6.0157 0.731712 5.79444 0.484353 5.51362 0.3235C5.2328 0.162647 4.9075 0.0969277 4.58626 0.136152C3.31592 0.303314 2.14986 0.927185 1.30588 1.89124C0.461903 2.8553 -0.00228837 4.09361 8.4831e-06 5.3749C8.4831e-06 12.8187 6.05626 18.8749 13.5 18.8749C14.7813 18.8772 16.0196 18.413 16.9837 17.569C17.9477 16.725 18.5716 15.559 18.7388 14.2887C18.7781 13.9675 18.7125 13.6423 18.5518 13.3615C18.3911 13.0807 18.144 12.8594 17.8472 12.7305ZM13.5 17.3749C10.3185 17.3714 7.26825 16.106 5.01856 13.8563C2.76888 11.6067 1.50348 8.55643 1.50001 5.3749C1.49648 4.45942 1.82631 3.57396 2.42789 2.88388C3.02947 2.19379 3.86167 1.74628 4.76907 1.6249C4.7687 1.62864 4.7687 1.63241 4.76907 1.63615L6.73782 6.0424L4.80001 8.36178C4.78034 8.38441 4.76247 8.40854 4.74657 8.43396C4.60549 8.65045 4.52273 8.89971 4.5063 9.15758C4.48988 9.41546 4.54035 9.6732 4.65282 9.90584C5.5022 11.643 7.25251 13.3802 9.00845 14.2287C9.24279 14.3401 9.50203 14.3888 9.76083 14.3701C10.0196 14.3513 10.2692 14.2658 10.485 14.1218C10.5091 14.1056 10.5322 14.088 10.5544 14.0693L12.8334 12.1249L17.2397 14.0983C17.2397 14.0983 17.2472 14.0983 17.25 14.0983C17.1301 15.007 16.6833 15.8409 15.9931 16.444C15.3028 17.047 14.4166 17.378 13.5 17.3749Z" fill="#FDFDFD"/>
</svg>
